<svg id="Layer_1" data-name="Layer 1" xmlns="http://www.w3.org/2000/svg" viewBox="0 0 281.86 46.02"><title>wearebeard-horizontal-logo</title><path d="M276.35,298l-7.24-46H277l2.62,21.39c.42,3.31.62,6.34,1,11.24,0,.35.07,1.24.21,2.42.48-7.25.69-9.18,1.17-13.66L284.49,252h8.28l2.9,21.39c.55,4.14,1,8.76,1.31,13.66.14-1.73.21-2.35.83-9.39.14-2.2.28-3.65.35-4.27L300.43,252h8.08l-7,46h-8.7l-3-22c-.42-3.66-.76-6.7-1-10.63-.07,1-.27,3.31-.41,4.83s-.28,3.18-.55,5.8l-2.42,22Z" transform="translate(-269.11 -251.96)"/><path d="M333.55,259.34H320.17V271h12.62v6.69H320.17V290.6h14.14V298H312.23V252h21.32Z" transform="translate(-269.11 -251.96)"/><path d="M346.52,285.7,344.87,298h-7.73l7.31-46h10.28l8.21,46h-7.72l-2-12.28ZM351,271.21c-.42-3-1-7.25-1.38-12.15-.49,6.56-.69,8.35-1.18,12.15l-1.1,7.79h4.9Z" transform="translate(-269.11 -251.96)"/><path d="M373.71,298h-7.94V252h10.91c4.83,0,7.17.48,8.76,1.93,1.86,1.65,2.76,5,2.76,10.55,0,6.7-.9,8.35-5.38,9.39,3.93.69,5.1,2.41,5.1,7.93v6.63c0,5.86.14,7.52.76,9.59h-8.35a29.89,29.89,0,0,1-.34-5.8v-8.42c0-5-1.11-6.69-4.49-6.69h-1.79ZM376,270.65c3.58,0,4.62-1.44,4.62-6.14,0-4.9-.9-6.14-4.49-6.14h-2.41v12.28Z" transform="translate(-269.11 -251.96)"/><path d="M414.49,259.34H401.1V271h12.63v6.69H401.1V290.6h14.15V298H393.17V252h21.32Z" transform="translate(-269.11 -251.96)"/><path d="M419.32,252h9.52c5.79,0,8.35.62,10,2.55,1.52,1.72,2.28,5,2.28,9.66,0,6.55-1,8.62-4.48,9.73,4.21,1.17,5.31,3.59,5.31,11.18,0,5.45-.9,8.69-2.9,10.55S434.63,298,428.36,298h-9Zm10.49,18.9c2.89,0,3.72-1.31,3.72-6.14s-.83-6.07-3.72-6.07h-2.56v12.21Zm-1.18,20.43c4.14,0,5.25-1.45,5.25-7,0-5.32-1.11-6.77-5.25-6.77h-1.38v13.74Z" transform="translate(-269.11 -251.96)"/><path d="M468,259.34H454.58V271H467.2v6.69H454.58V290.6h14.14V298H446.64V252H468Z" transform="translate(-269.11 -251.96)"/><path d="M480.93,285.7,479.28,298h-7.73l7.31-46h10.28l8.21,46h-7.72l-2-12.28Zm4.49-14.49c-.42-3-1-7.25-1.38-12.15-.49,6.56-.69,8.35-1.17,12.15L481.76,279h4.9Z" transform="translate(-269.11 -251.96)"/><path d="M508.12,298h-7.94V252h10.91c4.83,0,7.17.48,8.76,1.93,1.86,1.65,2.76,5,2.76,10.55,0,6.7-.9,8.35-5.38,9.39,3.93.69,5.1,2.41,5.1,7.93v6.63c0,5.86.14,7.52.76,9.59h-8.35a29.89,29.89,0,0,1-.34-5.8v-8.42c0-5-1.11-6.69-4.49-6.69h-1.79Zm2.28-27.33c3.58,0,4.62-1.44,4.62-6.14,0-4.9-.9-6.14-4.49-6.14h-2.41v12.28Z" transform="translate(-269.11 -251.96)"/><path d="M527.58,252h10.28c6.41,0,9,.62,10.76,2.69s2.35,4.83,2.35,13.24v14.77c0,8-.49,10.63-2.35,12.7S544.27,298,537.86,298H527.58Zm9.86,39.88c4.63,0,5.59-1.24,5.59-7.32V265.34c0-6-1-7.31-5.59-7.31h-1.93v33.81Z" transform="translate(-269.11 -251.96)"/></svg>